M48
; DRILL file {KiCad 7.0.5} date Sat Mar 23 19:11:44 2024
; FORMAT={-:-/ absolute / metric / decimal}
; #@! TF.CreationDate,2024-03-23T19:11:44+04:00
; #@! TF.GenerationSoftware,Kicad,Pcbnew,7.0.5
; #@! TF.FileFunction,Plated,1,2,PTH
FMAT,2
METRIC
; #@! TA.AperFunction,Plated,PTH,ComponentDrill
T1C0.800
; #@! TA.AperFunction,Plated,PTH,ComponentDrill
T2C1.000
; #@! TA.AperFunction,Plated,PTH,ComponentDrill
T3C1.100
; #@! TA.AperFunction,Plated,PTH,ComponentDrill
T4C1.200
; #@! TA.AperFunction,Plated,PTH,ComponentDrill
T5C1.520
%
G90
G05
T1
X125.74Y67.32
X125.74Y69.86
X125.74Y72.4
X125.74Y74.94
X133.36Y67.32
X133.36Y69.86
X133.36Y72.4
X133.36Y74.94
T2
X101.6Y71.12
X101.6Y73.66
X101.6Y76.2
T3
X134.62Y83.82
X137.16Y83.82
X139.7Y83.82
T4
X111.76Y86.36
X116.76Y86.36
X116.84Y66.04
X116.84Y73.66
X139.7Y66.04
X139.7Y73.66
T5
X127.0Y53.34
X127.0Y99.06
X132.08Y53.34
X132.08Y99.06
T0
M30
